<svg width="19" height="18" viewBox="0 0 19 18" fill="none" xmlns="http://www.w3.org/2000/svg">
<path d="M10.4453 2.69992L4.28775 9.21742C4.05525 9.46492 3.83025 9.95242 3.78525 10.2899L3.50775 12.7199C3.41025 13.5974 4.04025 14.1974 4.91025 14.0474L7.32525 13.6349C7.66276 13.5749 8.13525 13.3274 8.36775 13.0724L14.5253 6.55492C15.5903 5.42992 16.0703 4.14742 14.4128 2.57992C12.7628 1.02742 11.5103 1.57492 10.4453 2.69992Z" fill="#FCFCFD" stroke="#6C3787" stroke-width="1.5" stroke-miterlimit="10" stroke-linecap="round" stroke-linejoin="round"/>
<path d="M9.41724 3.7876C9.73974 5.8576 11.4197 7.4401 13.5047 7.6501L9.41724 3.7876Z" fill="#FCFCFD"/>
<path d="M9.41724 3.7876C9.73974 5.8576 11.4197 7.4401 13.5047 7.6501" stroke="#6C3787" stroke-width="1.5" stroke-miterlimit="10" stroke-linecap="round" stroke-linejoin="round"/>
<path d="M2.75 16.5H16.25" stroke="#292D32" stroke-width="1.5" stroke-miterlimit="10" stroke-linecap="round" stroke-linejoin="round"/>
</svg>
