<svg width="24" height="25" viewBox="0 0 24 25" fill="none" xmlns="http://www.w3.org/2000/svg">
<path opacity="0.4" d="M21.0802 9.08003V15.92C21.0802 17.04 20.4802 18.08 19.5102 18.65L13.5702 22.08C12.6002 22.64 11.4002 22.64 10.4202 22.08L4.48016 18.65C3.51016 18.09 2.91016 17.05 2.91016 15.92V9.08003C2.91016 7.96003 3.51016 6.91999 4.48016 6.34999L10.4202 2.92C11.3902 2.36 12.5902 2.36 13.5702 2.92L19.5102 6.34999C20.4802 6.91999 21.0802 7.95003 21.0802 9.08003Z"/>
<path d="M12 14.25C11.59 14.25 11.25 13.91 11.25 13.5V8.25C11.25 7.84 11.59 7.5 12 7.5C12.41 7.5 12.75 7.84 12.75 8.25V13.5C12.75 13.91 12.41 14.25 12 14.25Z"/>
<path d="M12 17.75C11.87 17.75 11.74 17.72 11.62 17.67C11.49 17.62 11.39 17.55 11.29 17.46C11.2 17.36 11.13 17.25 11.07 17.13C11.02 17.01 11 16.88 11 16.75C11 16.49 11.1 16.23 11.29 16.04C11.39 15.95 11.49 15.88 11.62 15.83C11.99 15.67 12.43 15.76 12.71 16.04C12.8 16.14 12.87 16.24 12.92 16.37C12.97 16.49 13 16.62 13 16.75C13 16.88 12.97 17.01 12.92 17.13C12.87 17.25 12.8 17.36 12.71 17.46C12.52 17.65 12.27 17.75 12 17.75Z"/>
</svg>
